<!-- Generated by Claude 3.7 Sonnet at https://claude.ai/ -->
<svg viewBox="0 0 64 64" xmlns="http://www.w3.org/2000/svg">
    <!-- Dark background representing space -->
    <rect x="0" y="0" width="64" height="64" fill="#121220" rx="8" ry="8" />

    <!-- Orbital paths (warped to suggest relativity) -->
    <ellipse cx="32" cy="32" rx="28" ry="16" fill="none" stroke="#3050A0" stroke-width="1" stroke-opacity="0.4" transform="rotate(15, 32, 32)" />
    <ellipse cx="32" cy="32" rx="22" ry="11" fill="none" stroke="#3050A0" stroke-width="1" stroke-opacity="0.6" transform="rotate(-10, 32, 32)" />
    <ellipse cx="32" cy="32" rx="14" ry="8" fill="none" stroke="#3050A0" stroke-width="1" stroke-opacity="0.8" transform="rotate(5, 32, 32)" />

    <!-- Central massive body (representing gravitational warping) -->
    <circle cx="32" cy="32" r="8" fill="#FFA030">
        <animate attributeName="opacity" values="0.8;1;0.8" dur="3s" repeatCount="indefinite" />
    </circle>

    <!-- Gravity well visualization (suggesting spacetime curvature) -->
    <circle cx="32" cy="32" r="14" fill="none" stroke="#FFA030" stroke-width="1" stroke-opacity="0.4" />
    <circle cx="32" cy="32" r="16" fill="none" stroke="#FFA030" stroke-width="0.7" stroke-opacity="0.3" />
    <circle cx="32" cy="32" r="18" fill="none" stroke="#FFA030" stroke-width="0.5" stroke-opacity="0.2" />

    <!-- Orbiting bodies -->
    <circle cx="20" cy="28" r="3.5" fill="#50B0FF" />
    <circle cx="47" cy="38" r="4" fill="#60D0A0" />
    <circle cx="32" cy="16" r="2.5" fill="#FF6090" />
    <circle cx="26" cy="46" r="2" fill="#FFDD40" />

    <!-- Subtle starburst to suggest relativistic effects -->
    <path d="M32,25 L32,39 M25,32 L39,32" stroke="white" stroke-width="0.8" stroke-opacity="0.4" />
    <path d="M27,27 L37,37 M27,37 L37,27" stroke="white" stroke-width="0.5" stroke-opacity="0.3" />
</svg>