<!-- Generated by ChatGPT 4o at https://chatgpt.com/ -->
<svg xmlns="http://www.w3.org/2000/svg" viewBox="0 0 24 24" fill="white" width="24" height="24">
  <path d="M19.43 12.98c.04-.32.07-.66.07-1s-.03-.68-.07-1l2.11-1.65c.19-.15.24-.42.12-.64l-2-3.46a.5.5 0 0 0-.6-.22l-2.49 1a7.007 7.007 0 0 0-1.7-.99L14.5 2.5a.5.5 0 0 0-.5-.5h-4a.5.5 0 0 0-.5.5l-.38 2.52c-.63.25-1.21.58-1.75.98l-2.49-1a.5.5 0 0 0-.6.22l-2 3.46c-.12.22-.07.49.12.64l2.11 1.65c-.05.33-.08.66-.08 1s.03.68.08 1l-2.11 1.65a.5.5 0 0 0-.12.64l2 3.46c.12.22.39.3.6.22l2.49-1c.54.4 1.12.73 1.75.98l.38 2.52c.04.27.27.48.5.48h4c.28 0 .46-.21.5-.48l.38-2.52c.63-.25 1.21-.58 1.75-.98l2.49 1c.22.08.49 0 .6-.22l2-3.46a.5.5 0 0 0-.12-.64l-2.11-1.65zM12 15.5A3.5 3.5 0 1 1 12 8a3.5 3.5 0 0 1 0 7.5z"/>
</svg>